<?xml version="1.0" encoding="UTF-8" standalone="no"?>
<svg
   xmlns:dc="http://purl.org/dc/elements/1.1/"
   xmlns:cc="http://creativecommons.org/ns#"
   xmlns:rdf="http://www.w3.org/1999/02/22-rdf-syntax-ns#"
   xmlns:svg="http://www.w3.org/2000/svg"
   xmlns="http://www.w3.org/2000/svg"
   height="54"
   width="5000"
   version="1.1"
   viewBox="0 0 5000.0001 54.000001"
   preserveAspectRatio="xMidYMin slice">
  <path
     d="M -5.6664606,117.00452 4999.7225,114.68763 5000.1926,9.3848829 c 0,0 -315.7738,28.0237751 -418.791,21.1431331 C 4478.3844,23.647374 4239.7247,12.583519 4043.614,11.093549 3847.5033,9.6035791 3541.2415,40.252713 3437.8853,35.384283 3334.5291,30.515852 2917.447,19.900955 2883.0458,18.764303 2848.6446,17.627651 2578.1801,8.48745 2474.8226,28.70165 2371.4651,48.91585 2227.2349,1.008424 2102.8943,0 1932.5415,-1.3815909 1851.5402,18.598617 1592.7633,31.052811 1333.9863,43.507005 1171.9686,4.9716467 905.90669,4.9302824 639.84474,4.8889181 474.88478,26.860395 314.04548,33.235817 153.20619,39.611238 -0.01928904,-4.0962071 -0.01928904,-4.0962071 Z"
     style="fill:#ffffff;fill-opacity:0.42519687;stroke:none"
     />
  <path
     style="fill:#ffffff;fill-opacity:0.68627453;stroke:none"
     d="M -5.6664606,125.00452 4999.7225,122.68763 5000.1926,17.384883 c 0,0 -315.7738,28.023775 -418.791,21.143133 C 4478.3844,31.647374 4239.7247,20.583519 4043.614,19.093549 3847.5033,17.603579 3541.2415,48.252713 3437.8853,43.384283 3334.5291,38.515852 2917.447,27.900955 2883.0458,26.764303 2848.6446,25.627651 2578.1801,16.48745 2474.8226,36.70165 2371.4651,56.91585 2227.2349,9.008424 2102.8943,8 1932.5415,6.618409 1851.5402,26.598617 1592.7633,39.052811 1333.9863,51.507005 1171.9686,12.971647 905.90669,12.930282 639.84474,12.888918 474.88478,34.860395 314.04548,41.235817 153.20619,47.611238 -0.01928904,3.903793 -0.01928904,3.903793 Z" />
</svg>
